  0
SECTION
  2
HEADER
  9
$ACADVER
  1
AC1024
  9
$ACADMAINTVER
 70
6
  9
$DWGCODEPAGE
  3
ANSI_1252
  9
$LASTSAVEDBY
  1
ezdxf
  9
$INSBASE
 10
0.0
 20
0.0
 30
0.0
  9
$EXTMIN
 10
1e+20
 20
1e+20
 30
1e+20
  9
$EXTMAX
 10
-1e+20
 20
-1e+20
 30
-1e+20
  9
$LIMMIN
 10
0.0
 20
0.0
  9
$LIMMAX
 10
420.0
 20
297.0
  9
$ORTHOMODE
 70
0
  9
$REGENMODE
 70
1
  9
$FILLMODE
 70
1
  9
$QTEXTMODE
 70
0
  9
$MIRRTEXT
 70
1
  9
$LTSCALE
 40
1.0
  9
$ATTMODE
 70
1
  9
$TEXTSIZE
 40
2.5
  9
$TRACEWID
 40
1.0
  9
$TEXTSTYLE
  7
Standard
  9
$CLAYER
  8
0
  9
$CELTYPE
  6
ByLayer
  9
$CECOLOR
 62
256
  9
$CELTSCALE
 40
1.0
  9
$DISPSILH
 70
0
  9
$DIMSCALE
 40
1.0
  9
$DIMASZ
 40
2.5
  9
$DIMEXO
 40
0.625
  9
$DIMDLI
 40
3.75
  9
$DIMRND
 40
0.0
  9
$DIMDLE
 40
0.0
  9
$DIMEXE
 40
1.25
  9
$DIMTP
 40
0.0
  9
$DIMTM
 40
0.0
  9
$DIMTXT
 40
2.5
  9
$DIMCEN
 40
2.5
  9
$DIMTSZ
 40
0.0
  9
$DIMTOL
 70
0
  9
$DIMLIM
 70
0
  9
$DIMTIH
 70
0
  9
$DIMTOH
 70
0
  9
$DIMSE1
 70
0
  9
$DIMSE2
 70
0
  9
$DIMTAD
 70
1
  9
$DIMZIN
 70
8
  9
$DIMBLK
  1

  9
$DIMASO
 70
1
  9
$DIMSHO
 70
1
  9
$DIMPOST
  1

  9
$DIMAPOST
  1

  9
$DIMALT
 70
0
  9
$DIMALTD
 70
3
  9
$DIMALTF
 40
0.03937007874
  9
$DIMLFAC
 40
1.0
  9
$DIMTOFL
 70
1
  9
$DIMTVP
 40
0.0
  9
$DIMTIX
 70
0
  9
$DIMSOXD
 70
0
  9
$DIMSAH
 70
0
  9
$DIMBLK1
  1

  9
$DIMBLK2
  1

  9
$DIMSTYLE
  2
ISO-25
  9
$DIMCLRD
 70
0
  9
$DIMCLRE
 70
0
  9
$DIMCLRT
 70
0
  9
$DIMTFAC
 40
1.0
  9
$DIMGAP
 40
0.625
  9
$DIMJUST
 70
0
  9
$DIMSD1
 70
0
  9
$DIMSD2
 70
0
  9
$DIMTOLJ
 70
0
  9
$DIMTZIN
 70
8
  9
$DIMALTZ
 70
0
  9
$DIMALTTZ
 70
0
  9
$DIMUPT
 70
0
  9
$DIMDEC
 70
2
  9
$DIMTDEC
 70
2
  9
$DIMALTU
 70
2
  9
$DIMALTTD
 70
3
  9
$DIMTXSTY
  7
Standard
  9
$DIMAUNIT
 70
0
  9
$DIMADEC
 70
0
  9
$DIMALTRND
 40
0.0
  9
$DIMAZIN
 70
0
  9
$DIMDSEP
 70
44
  9
$DIMATFIT
 70
3
  9
$DIMFRAC
 70
0
  9
$DIMLDRBLK
  1

  9
$DIMLUNIT
 70
2
  9
$DIMLWD
 70
-2
  9
$DIMLWE
 70
-2
  9
$DIMTMOVE
 70
0
  9
$DIMFXL
 40
1.0
  9
$DIMFXLON
 70
0
  9
$DIMJOGANG
 40
0.785398163397
  9
$DIMTFILL
 70
0
  9
$DIMTFILLCLR
 70
0
  9
$DIMARCSYM
 70
0
  9
$DIMLTYPE
  6

  9
$DIMLTEX1
  6

  9
$DIMLTEX2
  6

  9
$DIMTXTDIRECTION
 70
0
  9
$LUNITS
 70
2
  9
$LUPREC
 70
4
  9
$SKETCHINC
 40
1.0
  9
$FILLETRAD
 40
10.0
  9
$AUNITS
 70
0
  9
$AUPREC
 70
2
  9
$MENU
  1
.
  9
$ELEVATION
 40
0.0
  9
$PELEVATION
 40
0.0
  9
$THICKNESS
 40
0.0
  9
$LIMCHECK
 70
0
  9
$CHAMFERA
 40
0.0
  9
$CHAMFERB
 40
0.0
  9
$CHAMFERC
 40
0.0
  9
$CHAMFERD
 40
0.0
  9
$SKPOLY
 70
0
  9
$TDCREATE
 40
2461129.128101852
  9
$TDUCREATE
 40
2458532.153996898
  9
$TDUPDATE
 40
2461129.128101852
  9
$TDUUPDATE
 40
2458532.1544311
  9
$TDINDWG
 40
0.0
  9
$TDUSRTIMER
 40
0.0
  9
$USRTIMER
 70
1
  9
$ANGBASE
 50
0.0
  9
$ANGDIR
 70
0
  9
$PDMODE
 70
0
  9
$PDSIZE
 40
0.0
  9
$PLINEWID
 40
0.0
  9
$SPLFRAME
 70
0
  9
$SPLINETYPE
 70
6
  9
$SPLINESEGS
 70
8
  9
$HANDSEED
  5
3C
  9
$SURFTAB1
 70
6
  9
$SURFTAB2
 70
6
  9
$SURFTYPE
 70
6
  9
$SURFU
 70
6
  9
$SURFV
 70
6
  9
$UCSBASE
  2

  9
$UCSNAME
  2

  9
$UCSORG
 10
0.0
 20
0.0
 30
0.0
  9
$UCSXDIR
 10
1.0
 20
0.0
 30
0.0
  9
$UCSYDIR
 10
0.0
 20
1.0
 30
0.0
  9
$UCSORTHOREF
  2

  9
$UCSORTHOVIEW
 70
0
  9
$UCSORGTOP
 10
0.0
 20
0.0
 30
0.0
  9
$UCSORGBOTTOM
 10
0.0
 20
0.0
 30
0.0
  9
$UCSORGLEFT
 10
0.0
 20
0.0
 30
0.0
  9
$UCSORGRIGHT
 10
0.0
 20
0.0
 30
0.0
  9
$UCSORGFRONT
 10
0.0
 20
0.0
 30
0.0
  9
$UCSORGBACK
 10
0.0
 20
0.0
 30
0.0
  9
$PUCSBASE
  2

  9
$PUCSNAME
  2

  9
$PUCSORG
 10
0.0
 20
0.0
 30
0.0
  9
$PUCSXDIR
 10
1.0
 20
0.0
 30
0.0
  9
$PUCSYDIR
 10
0.0
 20
1.0
 30
0.0
  9
$PUCSORTHOREF
  2

  9
$PUCSORTHOVIEW
 70
0
  9
$PUCSORGTOP
 10
0.0
 20
0.0
 30
0.0
  9
$PUCSORGBOTTOM
 10
0.0
 20
0.0
 30
0.0
  9
$PUCSORGLEFT
 10
0.0
 20
0.0
 30
0.0
  9
$PUCSORGRIGHT
 10
0.0
 20
0.0
 30
0.0
  9
$PUCSORGFRONT
 10
0.0
 20
0.0
 30
0.0
  9
$PUCSORGBACK
 10
0.0
 20
0.0
 30
0.0
  9
$USERI1
 70
0
  9
$USERI2
 70
0
  9
$USERI3
 70
0
  9
$USERI4
 70
0
  9
$USERI5
 70
0
  9
$USERR1
 40
0.0
  9
$USERR2
 40
0.0
  9
$USERR3
 40
0.0
  9
$USERR4
 40
0.0
  9
$USERR5
 40
0.0
  9
$WORLDVIEW
 70
1
  9
$SHADEDGE
 70
3
  9
$SHADEDIF
 70
70
  9
$TILEMODE
 70
1
  9
$MAXACTVP
 70
64
  9
$PINSBASE
 10
0.0
 20
0.0
 30
0.0
  9
$PLIMCHECK
 70
0
  9
$PEXTMIN
 10
1e+20
 20
1e+20
 30
1e+20
  9
$PEXTMAX
 10
-1e+20
 20
-1e+20
 30
-1e+20
  9
$PLIMMIN
 10
0.0
 20
0.0
  9
$PLIMMAX
 10
420.0
 20
297.0
  9
$UNITMODE
 70
0
  9
$VISRETAIN
 70
1
  9
$PLINEGEN
 70
0
  9
$PSLTSCALE
 70
1
  9
$TREEDEPTH
 70
3020
  9
$CMLSTYLE
  2
Standard
  9
$CMLJUST
 70
0
  9
$CMLSCALE
 40
20.0
  9
$PROXYGRAPHICS
 70
1
  9
$MEASUREMENT
 70
1
  9
$CELWEIGHT
370
-1
  9
$ENDCAPS
280
0
  9
$JOINSTYLE
280
0
  9
$LWDISPLAY
290
0
  9
$INSUNITS
 70
6
  9
$HYPERLINKBASE
  1

  9
$STYLESHEET
  1

  9
$XEDIT
290
1
  9
$CEPSNTYPE
380
0
  9
$PSTYLEMODE
290
1
  9
$FINGERPRINTGUID
  2
{E32869F3-EF23-4978-968F-0D37F8E027A8}
  9
$VERSIONGUID
  2
{3CF313EC-C899-40D3-818D-CB9FB7706C01}
  9
$EXTNAMES
290
1
  9
$PSVPSCALE
 40
0.0
  9
$OLESTARTUP
290
0
  9
$SORTENTS
280
127
  9
$INDEXCTL
280
0
  9
$HIDETEXT
280
1
  9
$XCLIPFRAME
280
1
  9
$HALOGAP
280
0
  9
$OBSCOLOR
 70
257
  9
$OBSLTYPE
280
0
  9
$INTERSECTIONDISPLAY
280
0
  9
$INTERSECTIONCOLOR
 70
257
  9
$DIMASSOC
280
2
  9
$PROJECTNAME
  1

  9
$CAMERADISPLAY
290
0
  9
$LENSLENGTH
 40
50.0
  9
$CAMERAHEIGHT
 40
0.0
  9
$STEPSPERSEC
 40
24.0
  9
$STEPSIZE
 40
100.0
  9
$3DDWFPREC
 40
2.0
  9
$PSOLWIDTH
 40
0.005
  9
$PSOLHEIGHT
 40
0.08
  9
$LOFTANG1
 40
1.570796326795
  9
$LOFTANG2
 40
1.570796326795
  9
$LOFTMAG1
 40
0.0
  9
$LOFTMAG2
 40
0.0
  9
$LOFTPARAM
 70
7
  9
$LOFTNORMALS
280
1
  9
$LATITUDE
 40
37.795
  9
$LONGITUDE
 40
-122.394
  9
$NORTHDIRECTION
 40
0.0
  9
$TIMEZONE
 70
-8000
  9
$LIGHTGLYPHDISPLAY
280
1
  9
$TILEMODELIGHTSYNCH
280
1
  9
$CMATERIAL
347
20
  9
$SOLIDHIST
280
0
  9
$SHOWHIST
280
1
  9
$DWFFRAME
280
2
  9
$DGNFRAME
280
2
  9
$REALWORLDSCALE
290
1
  9
$INTERFERECOLOR
 62
256
  9
$CSHADOW
280
0
  9
$SHADOWPLANELOCATION
 40
0.0
  0
ENDSEC
  0
SECTION
  2
CLASSES
  0
CLASS
  1
ACDBDICTIONARYWDFLT
  2
AcDbDictionaryWithDefault
  3
ObjectDBX Classes
 90
0
 91
0
280
0
281
0
  0
CLASS
  1
SUN
  2
AcDbSun
  3
SCENEOE
 90
1153
 91
0
280
0
281
0
  0
CLASS
  1
VISUALSTYLE
  2
AcDbVisualStyle
  3
ObjectDBX Classes
 90
4095
 91
0
280
0
281
0
  0
CLASS
  1
MATERIAL
  2
AcDbMaterial
  3
ObjectDBX Classes
 90
1153
 91
0
280
0
281
0
  0
CLASS
  1
SCALE
  2
AcDbScale
  3
ObjectDBX Classes
 90
1153
 91
0
280
0
281
0
  0
CLASS
  1
TABLESTYLE
  2
AcDbTableStyle
  3
ObjectDBX Classes
 90
4095
 91
0
280
0
281
0
  0
CLASS
  1
MLEADERSTYLE
  2
AcDbMLeaderStyle
  3
ACDB_MLEADERSTYLE_CLASS
 90
4095
 91
0
280
0
281
0
  0
CLASS
  1
DICTIONARYVAR
  2
AcDbDictionaryVar
  3
ObjectDBX Classes
 90
0
 91
0
280
0
281
0
  0
CLASS
  1
CELLSTYLEMAP
  2
AcDbCellStyleMap
  3
ObjectDBX Classes
 90
1152
 91
0
280
0
281
0
  0
CLASS
  1
MENTALRAYRENDERSETTINGS
  2
AcDbMentalRayRenderSettings
  3
SCENEOE
 90
1024
 91
0
280
0
281
0
  0
CLASS
  1
ACDBDETAILVIEWSTYLE
  2
AcDbDetailViewStyle
  3
ObjectDBX Classes
 90
1025
 91
0
280
0
281
0
  0
CLASS
  1
ACDBSECTIONVIEWSTYLE
  2
AcDbSectionViewStyle
  3
ObjectDBX Classes
 90
1025
 91
0
280
0
281
0
  0
CLASS
  1
RASTERVARIABLES
  2
AcDbRasterVariables
  3
ISM
 90
0
 91
0
280
0
281
0
  0
CLASS
  1
LAYOUT
  2
AcDbLayout
  3
ObjectDBX Classes
 90
0
 91
0
280
0
281
0
  0
CLASS
  1
ACDBPLACEHOLDER
  2
AcDbPlaceHolder
  3
ObjectDBX Classes
 90
0
 91
0
280
0
281
0
  0
ENDSEC
  0
SECTION
  2
TABLES
  0
TABLE
  2
VPORT
  5
8
330
0
100
AcDbSymbolTable
 70
1
  0
VPORT
  5
23
330
8
100
AcDbSymbolTableRecord
100
AcDbViewportTableRecord
  2
*Active
 70
0
 10
0.0
 20
0.0
 11
1.0
 21
1.0
 12
0.0
 22
0.0
 13
0.0
 23
0.0
 14
0.5
 24
0.5
 15
0.5
 25
0.5
 16
0.0
 26
0.0
 36
1.0
 17
0.0
 27
0.0
 37
0.0
 40
1000.0
 41
1.34
 42
50.0
 43
0.0
 44
0.0
 50
0.0
 51
0.0
 71
0
 72
1000
 73
1
 74
3
 75
0
 76
0
 77
0
 78
0
281
0
 65
0
146
0.0
  0
ENDTAB
  0
TABLE
  2
LTYPE
  5
2
330
0
100
AcDbSymbolTable
 70
3
  0
LTYPE
  5
24
330
2
100
AcDbSymbolTableRecord
100
AcDbLinetypeTableRecord
  2
ByBlock
 70
0
  3

 72
65
 73
0
 40
0.0
  0
LTYPE
  5
25
330
2
100
AcDbSymbolTableRecord
100
AcDbLinetypeTableRecord
  2
ByLayer
 70
0
  3

 72
65
 73
0
 40
0.0
  0
LTYPE
  5
26
330
2
100
AcDbSymbolTableRecord
100
AcDbLinetypeTableRecord
  2
Continuous
 70
0
  3

 72
65
 73
0
 40
0.0
  0
ENDTAB
  0
TABLE
  2
LAYER
  5
1
330
0
100
AcDbSymbolTable
 70
7
  0
LAYER
  5
27
330
1
100
AcDbSymbolTableRecord
100
AcDbLayerTableRecord
  2
0
 70
0
 62
7
  6
Continuous
370
-3
390
13
347
21
  0
LAYER
  5
28
330
1
100
AcDbSymbolTableRecord
100
AcDbLayerTableRecord
  2
Defpoints
 70
0
 62
7
  6
Continuous
290
0
370
-3
390
13
347
21
  0
LAYER
  5
2F
330
1
100
AcDbSymbolTableRecord
100
AcDbLayerTableRecord
  2
airfoil
 70
0
 62
7
  6
Continuous
370
-3
390
13
347
21
  0
LAYER
  5
31
330
1
100
AcDbSymbolTableRecord
100
AcDbLayerTableRecord
  2
inlet
 70
0
 62
7
  6
Continuous
370
-3
390
13
347
21
  0
LAYER
  5
33
330
1
100
AcDbSymbolTableRecord
100
AcDbLayerTableRecord
  2
top
 70
0
 62
7
  6
Continuous
370
-3
390
13
347
21
  0
LAYER
  5
35
330
1
100
AcDbSymbolTableRecord
100
AcDbLayerTableRecord
  2
bottom
 70
0
 62
7
  6
Continuous
370
-3
390
13
347
21
  0
LAYER
  5
37
330
1
100
AcDbSymbolTableRecord
100
AcDbLayerTableRecord
  2
outlet
 70
0
 62
7
  6
Continuous
370
-3
390
13
347
21
  0
ENDTAB
  0
TABLE
  2
STYLE
  5
5
330
0
100
AcDbSymbolTable
 70
1
  0
STYLE
  5
29
330
5
100
AcDbSymbolTableRecord
100
AcDbTextStyleTableRecord
  2
Standard
 70
0
 40
0.0
 41
1.0
 50
0.0
 71
0
 42
2.5
  3
txt
  4

  0
ENDTAB
  0
TABLE
  2
VIEW
  5
7
330
0
100
AcDbSymbolTable
 70
0
  0
ENDTAB
  0
TABLE
  2
UCS
  5
6
330
0
100
AcDbSymbolTable
 70
0
  0
ENDTAB
  0
TABLE
  2
APPID
  5
3
330
0
100
AcDbSymbolTable
 70
3
  0
APPID
  5
2A
330
3
100
AcDbSymbolTableRecord
100
AcDbRegAppTableRecord
  2
ACAD
 70
0
  0
APPID
  5
39
330
3
100
AcDbSymbolTableRecord
100
AcDbRegAppTableRecord
  2
HATCHBACKGROUNDCOLOR
 70
0
  0
APPID
  5
3A
330
3
100
AcDbSymbolTableRecord
100
AcDbRegAppTableRecord
  2
EZDXF
 70
0
  0
ENDTAB
  0
TABLE
  2
DIMSTYLE
  5
4
330
0
100
AcDbSymbolTable
 70
1
100
AcDbDimStyleTable
  0
DIMSTYLE
105
2B
330
4
100
AcDbSymbolTableRecord
100
AcDbDimStyleTableRecord
  2
Standard
 70
0
 40
1.0
 41
2.5
 42
0.625
 43
3.75
 44
1.25
 45
0.0
 46
0.0
 47
0.0
 48
0.0
 49
2.5
140
2.5
141
2.5
142
0.0
143
0.03937007874
144
1.0
145
0.0
146
1.0
147
0.625
148
0.0
 69
0
 70
0
 71
0
 72
0
 73
0
 74
0
 75
0
 76
0
 77
1
 78
8
 79
3
170
0
171
3
172
1
173
0
174
0
175
0
176
0
177
0
178
0
179
2
271
2
272
2
273
2
274
3
275
0
276
0
277
2
278
44
279
0
280
0
281
0
282
0
283
0
284
8
285
0
286
0
288
0
289
3
290
0
371
-2
372
-2
  0
ENDTAB
  0
TABLE
  2
BLOCK_RECORD
  5
9
330
0
100
AcDbSymbolTable
 70
2
  0
BLOCK_RECORD
  5
17
330
9
100
AcDbSymbolTableRecord
100
AcDbBlockTableRecord
  2
*Model_Space
340
1A
 70
0
280
1
281
0
  0
BLOCK_RECORD
  5
1B
330
9
100
AcDbSymbolTableRecord
100
AcDbBlockTableRecord
  2
*Paper_Space
340
1E
 70
0
280
1
281
0
  0
ENDTAB
  0
ENDSEC
  0
SECTION
  2
BLOCKS
  0
BLOCK
  5
18
330
17
100
AcDbEntity
  8
0
100
AcDbBlockBegin
  2
*Model_Space
 70
0
 10
0.0
 20
0.0
 30
0.0
  3
*Model_Space
  1

  0
ENDBLK
  5
19
330
17
100
AcDbEntity
  8
0
100
AcDbBlockEnd
  0
BLOCK
  5
1C
330
1B
100
AcDbEntity
  8
0
100
AcDbBlockBegin
  2
*Paper_Space
 70
0
 10
0.0
 20
0.0
 30
0.0
  3
*Paper_Space
  1

  0
ENDBLK
  5
1D
330
1B
100
AcDbEntity
  8
0
100
AcDbBlockEnd
  0
ENDSEC
  0
SECTION
  2
ENTITIES
  0
LWPOLYLINE
  5
30
330
17
100
AcDbEntity
  8
airfoil
100
AcDbPolyline
 90
299
 70
1
 10
0.9999999999999999
 20
2.168404344971009e-19
 10
0.9998902350500163
 20
2.5579443130180628e-05
 10
0.9995609716794273
 20
0.00010221687156197548
 10
0.9990123045072216
 20
0.0002296105937354339
 10
0.9982443918336326
 20
0.0004072611560408968
 10
0.9972574565392333
 20
0.0006344763724397657
 10
0.9960517873361111
 20
0.0009103783282912286
 10
0.9946277403636097
 20
0.0012339123209443434
 10
0.9929857411190325
 20
0.0016038576892450523
 10
0.9911262867116643
 20
0.002018840473911951
 10
0.9890499484264591
 20
0.002477347840798859
 10
0.9867573745818322
 20
0.002977744189429403
 10
0.9842492936641152
 20
0.003518288859905884
 10
0.9815265177194641
 20
0.004097155342399012
 10
0.9785899459823073
 20
0.004712451884961131
 10
0.975440568717829
 20
0.005362243387408188
 10
0.9720794712544795
 20
0.006044574461524698
 10
0.9685078381811191
 20
0.006757493530892872
 10
0.964726957682134
 20
0.007499077837265755
 10
0.9607382259827052
 20
0.008267459214623652
 10
0.9565431518753934
 20
0.009060850486901428
 10
0.9521433612983152
 20
0.009877572340873601
 10
0.9475406019344257
 20
0.010716080521859801
 10
0.9427367478008133
 20
0.011574993196781192
 10
0.9377338037964453
 20
0.012453118326675764
 10
0.9325339101764762
 20
0.013349480889080764
 10
0.9271393469210584
 20
0.014263349789723209
 10
0.9215525379665707
 20
0.015194264302730753
 10
0.915776055267307
 20
0.016142059879090224
 10
0.9098126226559397
 20
0.017106893164340015
 10
0.9036651194715064
 20
0.018089266068481387
 10
0.8973365774561574
 20
0.019090015602245963
 10
0.8908299522753673
 20
0.020109149511602472
 10
0.8841480183069073
 20
0.021145313584951763
 10
0.8772936068840926
 20
0.022197018495323236
 10
0.8702696219919003
 20
0.02326272694006038
 10
0.8630790390830486
 20
0.02434085457166976
 10
0.8557249038752496
 20
0.025429771089332386
 10
0.848210331130521
 20
0.02652780149625247
 10
0.8405385034174029
 20
0.02763322752739297
 10
0.8327126698568776
 20
0.028744289251485488
 10
0.8247361448527475
 20
0.029859186850507282
 10
0.8166123068071716
 20
0.030976082579094306
 10
0.8083445968220078
 20
0.032093102905608246
 10
0.7999365173865676
 20
0.03320834083582019
 10
0.7913916465237351
 20
0.034319912101621476
 10
0.7827136843097421
 20
0.03542612390458046
 10
0.7739064106186856
 20
0.03652533585258751
 10
0.7649736695289667
 20
0.037615913626420146
 10
0.755919367782978
 20
0.03869623162280427
 10
0.7467474731934924
 20
0.03976467562266399
 10
0.7374620129970935
 20
0.04081964548024601
 10
0.7280670721551044
 20
0.041859557828595934
 10
0.7185667916026083
 20
0.04288284879666377
 10
0.708965366446257
 20
0.04388797673312399
 10
0.6992670441123561
 20
0.04487342493335833
 10
0.689476124367911
 20
0.04583770892749024
 10
0.6795969617760743
 20
0.04677938965465196
 10
0.6696339590356315
 20
0.04769706508865571
 10
0.6595915637124403
 20
0.04858937000636346
 10
0.6494742661160211
 20
0.04945497855448925
 10
0.6392865971308859
 20
0.050292606778602006
 10
0.6290331260043822
 20
0.05110101510860575
 10
0.6187184580929425
 20
0.05187901079492419
 10
0.6083472325687352
 20
0.05262545028958195
 10
0.5979241201319592
 20
0.05333924194497897
 10
0.5874538299472288
 20
0.054019429930949624
 10
0.576941119157784
 20
0.054665300998713015
 10
0.5663907726971966
 20
0.05527623068661832
 10
0.5558075978823821
 20
0.05585165944903348
 10
0.5451964217826226
 20
0.05639109328990061
 10
0.5345620885626526
 20
0.056894104275108985
 10
0.5239094568030704
 20
0.057360330923460025
 10
0.5132433968014012
 20
0.057789478476228666
 10
0.5025687878571978
 20
0.058181319045552654
 10
0.4918905138663799
 20
0.05853566915306403
 10
0.4812134481145967
 20
0.0588522225313332
 10
0.470542457646718
 20
0.059130645211736395
 10
0.4598824076695402
 20
0.05937067096765453
 10
0.4492381589635579
 20
0.05957210294006211
 10
0.4386145652452155
 20
0.05973481441897327
 10
0.4280164705360452
 20
0.05985874949193871
 10
0.4174487065417333
 20
0.05994392355614833
 10
0.40691609004411244
 20
0.059990423690979996
 10
0.39642342109838324
 20
0.05999839797069771
 10
0.3859755241034814
 20
0.059967451907949505
 10
0.3755772665258961
 20
0.059896354127709765
 10
0.3652334927665185
 20
0.0597839158984746
 10
0.35494901548642854
 20
0.05962907616605072
 10
0.34472861269064486
 20
0.05943090720834069
 10
0.33457702486654317
 20
0.05918861982854683
 10
0.32449895218100994
 20
0.05890156806395025
 10
0.314499051740193
 20
0.05856925338923171
 10
0.30458193491549707
 20
0.05819132839519921
 10
0.2947521704245379
 20
0.057767611227282196
 10
0.28501438580019106
 20
0.05729829490309408
 10
0.27537324758841064
 20
0.056783914840565844
 10
0.26583335738566427
 20
0.05622514835128259
 10
0.2563992451650019
 20
0.05562280677897153
 10
0.24707536653744225
 20
0.054977834700184136
 10
0.23786610016900986
 20
0.054291308665999245
 10
0.22877574535619194
 20
0.05356443548533739
 10
0.2198085197619912
 20
0.052798550052186095
 10
0.21096855731415762
 20
0.05199511272074431
 10
0.20225990626658938
 20
0.05115570623419489
 10
0.19368657363348374
 20
0.050281759301534626
 10
0.18525288200262477
 20
0.0493724257879544
 10
0.17696323215571974
 20
0.048425973769223085
 10
0.16882187018615702
 20
0.04744114856945448
 10
0.16083288430110204
 20
0.04641717982347717
 10
0.15300020420542182
 20
0.045353773839378046
 10
0.14532758652101807
 20
0.044251290759559074
 10
0.13781843122476103
 20
0.04311311615664676
 10
0.13047586235524475
 20
0.04194461007341891
 10
0.12330288839450057
 20
0.040751026569251766
 10
0.11630240659769506
 20
0.039537459740469856
 10
0.10947720370266609
 20
0.0383088398680045
 10
0.1028299568205962
 20
0.03706993026186185
 10
0.09636328868056483
 20
0.03582497970933281
 10
0.09008059966767401
 20
0.034572429525841705
 10
0.08398574881127015
 20
0.03330695270422107
 10
0.07808224005051916
 20
0.03202464519208712
 10
0.07237324541907711
 20
0.03072316855604285
 10
0.06686244763400939
 20
0.029403351338287028
 10
0.06155392325878492
 20
0.02806881687230082
 10
0.056451129128915825
 20
0.026723766962931793
 10
0.05155689208921561
 20
0.025372818509976816
 10
0.046873293759516675
 20
0.024020815523990206
 10
0.042400207521241406
 20
0.022671513763526892
 10
0.038136461446585765
 20
0.021328458120603026
 10
0.03408110575318367
 20
0.019995946941589255
 10
0.03023341084706342
 20
0.018678936054266803
 10
0.026592845636456988
 20
0.01738292699721303
 10
0.023159993493152193
 20
0.01611268629448561
 10
0.019951460394985656
 20
0.01485350383895995
 10
0.01699109365862843
 20
0.013582019858835646
 10
0.014293229547062221
 20
0.01228700398094021
 10
0.01186365793328902
 20
0.010968026905089972
 10
0.009701130572999608
 20
0.009633458807017053
 10
0.0077987980845102
 20
0.00829856259105656
 10
0.006145566714580993
 20
0.0069836937798690955
 10
0.00472736652121064
 20
0.005712618098288947
 10
0.0035283231959424366
 20
0.004510957026780958
 10
0.0025318263758099613
 20
0.0034047707706648953
 10
0.001721487955833829
 20
0.002419287218139599
 10
0.0010819846038498612
 20
0.0015777845473047036
 10
0.0005997793971702926
 20
0.000900634194099685
 10
0.0002637182418111198
 20
0.0004045099137770966
 10
6.54974963117735e-05
 20
0.00010176766274348421
 10
0.0
 20
0.0
 10
6.54974963117735e-05
 20
-0.00010176766274348421
 10
0.0002637182418111198
 20
-0.0004045099137770966
 10
0.0005997793971702926
 20
-0.000900634194099685
 10
0.0010819846038498612
 20
-0.0015777845473047036
 10
0.001721487955833829
 20
-0.002419287218139599
 10
0.0025318263758099613
 20
-0.0034047707706648953
 10
0.0035283231959424366
 20
-0.004510957026780958
 10
0.00472736652121064
 20
-0.005712618098288947
 10
0.006145566714580993
 20
-0.0069836937798690955
 10
0.0077987980845102
 20
-0.00829856259105656
 10
0.009701130572999608
 20
-0.009633458807017053
 10
0.01186365793328902
 20
-0.010968026905089972
 10
0.014293229547062221
 20
-0.01228700398094021
 10
0.01699109365862843
 20
-0.013582019858835646
 10
0.019951460394985656
 20
-0.01485350383895995
 10
0.023159993493152193
 20
-0.01611268629448561
 10
0.026592845636456988
 20
-0.01738292699721303
 10
0.03023341084706342
 20
-0.018678936054266803
 10
0.03408110575318367
 20
-0.019995946941589255
 10
0.038136461446585765
 20
-0.021328458120603026
 10
0.042400207521241406
 20
-0.022671513763526892
 10
0.046873293759516675
 20
-0.024020815523990206
 10
0.05155689208921561
 20
-0.025372818509976816
 10
0.056451129128915825
 20
-0.026723766962931793
 10
0.06155392325878492
 20
-0.02806881687230082
 10
0.06686244763400939
 20
-0.029403351338287028
 10
0.07237324541907711
 20
-0.03072316855604285
 10
0.07808224005051916
 20
-0.03202464519208712
 10
0.08398574881127015
 20
-0.03330695270422107
 10
0.09008059966767401
 20
-0.034572429525841705
 10
0.09636328868056483
 20
-0.03582497970933281
 10
0.1028299568205962
 20
-0.03706993026186185
 10
0.10947720370266609
 20
-0.0383088398680045
 10
0.11630240659769506
 20
-0.039537459740469856
 10
0.12330288839450057
 20
-0.040751026569251766
 10
0.13047586235524475
 20
-0.04194461007341891
 10
0.13781843122476103
 20
-0.04311311615664676
 10
0.14532758652101807
 20
-0.044251290759559074
 10
0.15300020420542182
 20
-0.045353773839378046
 10
0.16083288430110204
 20
-0.04641717982347717
 10
0.16882187018615702
 20
-0.04744114856945448
 10
0.17696323215571974
 20
-0.048425973769223085
 10
0.18525288200262477
 20
-0.0493724257879544
 10
0.19368657363348374
 20
-0.050281759301534626
 10
0.20225990626658938
 20
-0.05115570623419489
 10
0.21096855731415762
 20
-0.05199511272074431
 10
0.2198085197619912
 20
-0.052798550052186095
 10
0.22877574535619194
 20
-0.05356443548533739
 10
0.23786610016900986
 20
-0.054291308665999245
 10
0.24707536653744225
 20
-0.054977834700184136
 10
0.2563992451650019
 20
-0.05562280677897153
 10
0.26583335738566427
 20
-0.05622514835128259
 10
0.27537324758841064
 20
-0.056783914840565844
 10
0.28501438580019106
 20
-0.05729829490309408
 10
0.2947521704245379
 20
-0.057767611227282196
 10
0.30458193491549707
 20
-0.05819132839519921
 10
0.314499051740193
 20
-0.05856925338923171
 10
0.32449895218100994
 20
-0.05890156806395025
 10
0.33457702486654317
 20
-0.05918861982854683
 10
0.34472861269064486
 20
-0.05943090720834069
 10
0.35494901548642854
 20
-0.05962907616605072
 10
0.3652334927665185
 20
-0.0597839158984746
 10
0.3755772665258961
 20
-0.059896354127709765
 10
0.3859755241034814
 20
-0.059967451907949505
 10
0.39642342109838324
 20
-0.05999839797069771
 10
0.40691609004411244
 20
-0.059990423690979996
 10
0.4174487065417333
 20
-0.05994392355614833
 10
0.4280164705360452
 20
-0.05985874949193871
 10
0.4386145652452155
 20
-0.05973481441897327
 10
0.4492381589635579
 20
-0.05957210294006211
 10
0.4598824076695402
 20
-0.05937067096765453
 10
0.470542457646718
 20
-0.059130645211736395
 10
0.4812134481145967
 20
-0.0588522225313332
 10
0.4918905138663799
 20
-0.05853566915306403
 10
0.5025687878571978
 20
-0.058181319045552654
 10
0.5132433968014012
 20
-0.057789478476228666
 10
0.5239094568030704
 20
-0.057360330923460025
 10
0.5345620885626526
 20
-0.056894104275108985
 10
0.5451964217826226
 20
-0.05639109328990061
 10
0.5558075978823821
 20
-0.05585165944903348
 10
0.5663907726971966
 20
-0.05527623068661832
 10
0.576941119157784
 20
-0.054665300998713015
 10
0.5874538299472288
 20
-0.054019429930949624
 10
0.5979241201319592
 20
-0.05333924194497897
 10
0.6083472325687352
 20
-0.05262545028958195
 10
0.6187184580929425
 20
-0.05187901079492419
 10
0.6290331260043822
 20
-0.05110101510860575
 10
0.6392865971308859
 20
-0.050292606778602006
 10
0.6494742661160211
 20
-0.04945497855448925
 10
0.6595915637124403
 20
-0.04858937000636346
 10
0.6696339590356315
 20
-0.04769706508865571
 10
0.6795969617760743
 20
-0.04677938965465196
 10
0.689476124367911
 20
-0.04583770892749024
 10
0.6992670441123561
 20
-0.04487342493335833
 10
0.708965366446257
 20
-0.04388797673312399
 10
0.7185667916026083
 20
-0.04288284879666377
 10
0.7280670721551044
 20
-0.041859557828595934
 10
0.7374620129970935
 20
-0.04081964548024601
 10
0.7467474731934924
 20
-0.03976467562266399
 10
0.755919367782978
 20
-0.03869623162280427
 10
0.7649736695289667
 20
-0.037615913626420146
 10
0.7739064106186856
 20
-0.03652533585258751
 10
0.7827136843097421
 20
-0.03542612390458046
 10
0.7913916465237351
 20
-0.034319912101621476
 10
0.7999365173865676
 20
-0.03320834083582019
 10
0.8083445968220078
 20
-0.032093102905608246
 10
0.8166123068071716
 20
-0.030976082579094306
 10
0.8247361448527475
 20
-0.029859186850507282
 10
0.8327126698568776
 20
-0.028744289251485488
 10
0.8405385034174029
 20
-0.02763322752739297
 10
0.848210331130521
 20
-0.02652780149625247
 10
0.8557249038752496
 20
-0.025429771089332386
 10
0.8630790390830486
 20
-0.02434085457166976
 10
0.8702696219919003
 20
-0.02326272694006038
 10
0.8772936068840926
 20
-0.022197018495323236
 10
0.8841480183069073
 20
-0.021145313584951763
 10
0.8908299522753673
 20
-0.020109149511602472
 10
0.8973365774561574
 20
-0.019090015602245963
 10
0.9036651194715064
 20
-0.018089266068481387
 10
0.9098126226559397
 20
-0.017106893164340015
 10
0.915776055267307
 20
-0.016142059879090224
 10
0.9215525379665707
 20
-0.015194264302730753
 10
0.9271393469210584
 20
-0.014263349789723209
 10
0.9325339101764762
 20
-0.013349480889080764
 10
0.9377338037964453
 20
-0.012453118326675764
 10
0.9427367478008133
 20
-0.011574993196781192
 10
0.9475406019344257
 20
-0.010716080521859801
 10
0.9521433612983152
 20
-0.009877572340873601
 10
0.9565431518753934
 20
-0.009060850486901428
 10
0.9607382259827052
 20
-0.008267459214623652
 10
0.964726957682134
 20
-0.007499077837265755
 10
0.9685078381811191
 20
-0.006757493530892872
 10
0.9720794712544795
 20
-0.006044574461524698
 10
0.975440568717829
 20
-0.005362243387408188
 10
0.9785899459823073
 20
-0.004712451884961131
 10
0.9815265177194641
 20
-0.004097155342399012
 10
0.9842492936641152
 20
-0.003518288859905884
 10
0.9867573745818322
 20
-0.002977744189429403
 10
0.9890499484264591
 20
-0.002477347840798859
 10
0.9911262867116643
 20
-0.002018840473911951
 10
0.9929857411190325
 20
-0.0016038576892450523
 10
0.9946277403636097
 20
-0.0012339123209443434
 10
0.9960517873361111
 20
-0.0009103783282912286
 10
0.9972574565392333
 20
-0.0006344763724397657
 10
0.9982443918336326
 20
-0.0004072611560408968
 10
0.9990123045072216
 20
-0.0002296105937354339
 10
0.9995609716794273
 20
-0.00010221687156197548
 10
0.9998902350500163
 20
-2.5579443130180628e-05
 10
0.9999999999999999
 20
-2.168404344971009e-19
  0
LWPOLYLINE
  5
32
330
17
100
AcDbEntity
  8
inlet
100
AcDbPolyline
 90
80
 70
0
 10
1.2246467991473533e-15
 20
20.0
 10
0.7951303019385121
 20
19.984187944546036
 10
1.5890033394342895
 20
19.93677678029392
 10
2.380363836038096
 20
19.857841474039468
 10
3.1679604881443026
 20
19.747506838726668
 10
3.9505479435590547
 20
19.605947336092722
 10
4.726888770658098
 20
19.4333868008082
 10
5.495755415020508
 20
19.23009808654841
 10
6.255932140444544
 20
18.996402634555654
 10
7.006216951276488
 20
18.732669965374555
 10
7.745423493012822
 20
18.439317094564135
 10
8.472382928170566
 20
18.116807873310464
 10
9.185945784459559
 20
17.765652254982637
 10
9.884983772334458
 20
17.38640548879165
 10
10.568391569052393
 20
16.979667241827276
 10
11.235088566415419
 20
16.546080650861143
 10
11.88402057943421
 20
16.086331305415296
 10
12.5141615132112
 20
15.60114616370424
 10
13.124514985407513
 20
15.0912924031646
 10
13.714115901728263
 20
14.557576207389882
 10
14.282031981934995
 20
14.000841491388506
 10
14.827365233972365
 20
13.421968567180734
 10
15.34925337387816
 20
12.821872751844401
 10
15.84687118923149
 20
12.201502920210485
 10
16.31943184398322
 20
11.561840004496966
 10
16.76618812260553
 20
10.90389544325335
 10
17.186433611593223
 20
10.22870958206844
 10
17.579503816448675
 20
9.537350028570119
 10
17.944777212384246
 20
8.830909964318236
 10
18.281676227080695
 20
8.110506416259875
 10
18.58966815394774
 20
7.377278490480156
 10
18.86826599444269
 20
6.632385571041352
 10
19.117029228115218
 20
5.877005486758416
 10
19.335564509160744
 20
5.112332648809494
 10
19.523526288381017
 20
4.339576162126358
 10
19.680617359568412
 20
3.5599579135510035
 10
19.806589329450038
 20
2.774710639781361
 10
19.90124301044855
 20
1.98507597816123
 10
19.96442873563866
 20
1.1923025033963972
 10
19.99604659540131
 20
0.39764375330140034
 10
19.99604659540131
 20
-0.3976437533014048
 10
19.96442873563866
 20
-1.1923025033964016
 10
19.90124301044855
 20
-1.9850759781612344
 10
19.806589329450038
 20
-2.7747106397813655
 10
19.680617359568412
 20
-3.559957913551008
 10
19.523526288381017
 20
-4.339576162126362
 10
19.33556450916074
 20
-5.112332648809498
 10
19.117029228115214
 20
-5.87700548675842
 10
18.86826599444269
 20
-6.63238557104136
 10
18.58966815394774
 20
-7.37727849048016
 10
18.28167622708069
 20
-8.110506416259879
 10
17.944777212384246
 20
-8.83090996431824
 10
17.57950381644867
 20
-9.537350028570126
 10
17.186433611593223
 20
-10.228709582068445
 10
16.76618812260553
 20
-10.903895443253354
 10
16.319431843983217
 20
-11.561840004496972
 10
15.846871189231486
 20
-12.201502920210487
 10
15.349253373878158
 20
-12.821872751844403
 10
14.82736523397236
 20
-13.421968567180738
 10
14.282031981934995
 20
-14.000841491388506
 10
13.714115901728263
 20
-14.557576207389882
 10
13.12451498540751
 20
-15.091292403164607
 10
12.514161513211192
 20
-15.601146163704247
 10
11.884020579434209
 20
-16.086331305415296
 10
11.235088566415413
 20
-16.546080650861146
 10
10.568391569052384
 20
-16.97966724182728
 10
9.884983772334458
 20
-17.38640548879165
 10
9.185945784459555
 20
-17.765652254982637
 10
8.472382928170557
 20
-18.116807873310464
 10
7.745423493012814
 20
-18.439317094564135
 10
7.006216951276485
 20
-18.73266996537456
 10
6.255932140444539
 20
-18.996402634555654
 10
5.495755415020501
 20
-19.23009808654841
 10
4.726888770658098
 20
-19.4333868008082
 10
3.9505479435590503
 20
-19.605947336092726
 10
3.1679604881442938
 20
-19.747506838726668
 10
2.380363836038096
 20
-19.857841474039468
 10
1.589003339434285
 20
-19.93677678029392
 10
0.7951303019385076
 20
-19.984187944546036
 10
1.2246467991473533e-15
 20
-20.0
  0
LWPOLYLINE
  5
34
330
17
100
AcDbEntity
  8
top
100
AcDbPolyline
 90
2
 70
0
 10
1.2246467991473533e-15
 20
20.0
 10
40.0
 20
20.0
  0
LWPOLYLINE
  5
36
330
17
100
AcDbEntity
  8
bottom
100
AcDbPolyline
 90
2
 70
0
 10
40.0
 20
-20.0
 10
1.2246467991473533e-15
 20
-20.0
  0
LWPOLYLINE
  5
38
330
17
100
AcDbEntity
  8
outlet
100
AcDbPolyline
 90
2
 70
0
 10
40.0
 20
20.0
 10
40.0
 20
-20.0
  0
ENDSEC
  0
SECTION
  2
OBJECTS
  0
DICTIONARY
  5
A
330
0
100
AcDbDictionary
281
1
  3
ACAD_COLOR
350
B
  3
ACAD_GROUP
350
C
  3
ACAD_LAYOUT
350
D
  3
ACAD_MATERIAL
350
E
  3
ACAD_MLEADERSTYLE
350
F
  3
ACAD_MLINESTYLE
350
10
  3
ACAD_PLOTSETTINGS
350
11
  3
ACAD_PLOTSTYLENAME
350
12
  3
ACAD_SCALELIST
350
14
  3
ACAD_TABLESTYLE
350
15
  3
ACAD_VISUALSTYLE
350
16
  3
EZDXF_META
350
2D
  0
DICTIONARY
  5
B
330
A
100
AcDbDictionary
281
1
  0
DICTIONARY
  5
C
330
A
100
AcDbDictionary
281
1
  0
DICTIONARY
  5
D
330
A
100
AcDbDictionary
281
1
  3
Model
350
1A
  3
Layout1
350
1E
  0
DICTIONARY
  5
E
330
A
100
AcDbDictionary
281
1
  3
ByBlock
350
1F
  3
ByLayer
350
20
  3
Global
350
21
  0
DICTIONARY
  5
F
330
A
100
AcDbDictionary
281
1
  3
Standard
350
2C
  0
DICTIONARY
  5
10
330
A
100
AcDbDictionary
281
1
  3
Standard
350
22
  0
DICTIONARY
  5
11
330
A
100
AcDbDictionary
281
1
  0
ACDBDICTIONARYWDFLT
  5
12
330
A
100
AcDbDictionary
281
1
  3
Normal
350
13
100
AcDbDictionaryWithDefault
340
13
  0
ACDBPLACEHOLDER
  5
13
330
12
  0
DICTIONARY
  5
14
330
A
100
AcDbDictionary
281
1
  0
DICTIONARY
  5
15
330
A
100
AcDbDictionary
281
1
  0
DICTIONARY
  5
16
330
A
100
AcDbDictionary
281
1
  0
LAYOUT
  5
1A
330
D
100
AcDbPlotSettings
  1

  4
A3
  6

 40
7.5
 41
20.0
 42
7.5
 43
20.0
 44
420.0
 45
297.0
 46
0.0
 47
0.0
 48
0.0
 49
0.0
140
0.0
141
0.0
142
1.0
143
1.0
 70
1024
 72
1
 73
0
 74
5
  7

 75
16
 76
0
 77
2
 78
300
147
1.0
148
0.0
149
0.0
100
AcDbLayout
  1
Model
 70
1
 71
0
 10
0.0
 20
0.0
 11
420.0
 21
297.0
 12
0.0
 22
0.0
 32
0.0
 14
1e+20
 24
1e+20
 34
1e+20
 15
-1e+20
 25
-1e+20
 35
-1e+20
146
0.0
 13
0.0
 23
0.0
 33
0.0
 16
1.0
 26
0.0
 36
0.0
 17
0.0
 27
1.0
 37
0.0
 76
1
330
17
  0
LAYOUT
  5
1E
330
D
100
AcDbPlotSettings
  1

  4
A3
  6

 40
7.5
 41
20.0
 42
7.5
 43
20.0
 44
420.0
 45
297.0
 46
0.0
 47
0.0
 48
0.0
 49
0.0
140
0.0
141
0.0
142
1.0
143
1.0
 70
0
 72
1
 73
0
 74
5
  7

 75
16
 76
0
 77
2
 78
300
147
1.0
148
0.0
149
0.0
100
AcDbLayout
  1
Layout1
 70
1
 71
1
 10
0.0
 20
0.0
 11
420.0
 21
297.0
 12
0.0
 22
0.0
 32
0.0
 14
1e+20
 24
1e+20
 34
1e+20
 15
-1e+20
 25
-1e+20
 35
-1e+20
146
0.0
 13
0.0
 23
0.0
 33
0.0
 16
1.0
 26
0.0
 36
0.0
 17
0.0
 27
1.0
 37
0.0
 76
1
330
1B
  0
MATERIAL
  5
1F
102
{ACAD_REACTORS
330
E
102
}
330
E
100
AcDbMaterial
  1
ByBlock
  2

 70
0
 40
1.0
 71
1
 41
1.0
 91
-1023410177
 42
1.0
 72
1
  3

 73
1
 74
1
 75
1
 44
0.5
 73
0
 45
1.0
 46
1.0
 77
1
  4

 78
1
 79
1
170
1
 48
1.0
171
1
  6

172
1
173
1
174
1
140
1.0
141
1.0
175
1
  7

176
1
177
1
178
1
143
1.0
179
1
  8

270
1
271
1
272
1
145
1.0
146
1.0
273
1
  9

274
1
275
1
276
1
 42
1.0
 72
1
  3

 73
1
 74
1
 75
1
 94
63
  0
MATERIAL
  5
20
102
{ACAD_REACTORS
330
E
102
}
330
E
100
AcDbMaterial
  1
ByLayer
  2

 70
0
 40
1.0
 71
1
 41
1.0
 91
-1023410177
 42
1.0
 72
1
  3

 73
1
 74
1
 75
1
 44
0.5
 73
0
 45
1.0
 46
1.0
 77
1
  4

 78
1
 79
1
170
1
 48
1.0
171
1
  6

172
1
173
1
174
1
140
1.0
141
1.0
175
1
  7

176
1
177
1
178
1
143
1.0
179
1
  8

270
1
271
1
272
1
145
1.0
146
1.0
273
1
  9

274
1
275
1
276
1
 42
1.0
 72
1
  3

 73
1
 74
1
 75
1
 94
63
  0
MATERIAL
  5
21
102
{ACAD_REACTORS
330
E
102
}
330
E
100
AcDbMaterial
  1
Global
  2

 70
0
 40
1.0
 71
1
 41
1.0
 91
-1023410177
 42
1.0
 72
1
  3

 73
1
 74
1
 75
1
 44
0.5
 73
0
 45
1.0
 46
1.0
 77
1
  4

 78
1
 79
1
170
1
 48
1.0
171
1
  6

172
1
173
1
174
1
140
1.0
141
1.0
175
1
  7

176
1
177
1
178
1
143
1.0
179
1
  8

270
1
271
1
272
1
145
1.0
146
1.0
273
1
  9

274
1
275
1
276
1
 42
1.0
 72
1
  3

 73
1
 74
1
 75
1
 94
63
  0
MLINESTYLE
  5
22
102
{ACAD_REACTORS
330
10
102
}
330
10
100
AcDbMlineStyle
  2
Standard
 70
0
  3

 62
256
 51
90.0
 52
90.0
 71
2
 49
0.5
 62
256
  6
BYLAYER
 49
-0.5
 62
256
  6
BYLAYER
  0
MLEADERSTYLE
  5
2C
102
{ACAD_REACTORS
330
F
102
}
330
F
100
AcDbMLeaderStyle
179
2
170
2
171
1
172
0
 90
2
 40
0.0
 41
0.0
173
1
 91
-1056964608
 92
-2
290
1
 42
2.0
291
1
 43
8.0
  3
Standard
 44
4.0
300

342
29
174
1
175
1
176
0
178
1
 93
-1056964608
 45
4.0
292
0
297
0
 46
4.0
 94
-1056964608
 47
1.0
 49
1.0
140
1.0
294
1
141
0.0
177
0
142
1.0
295
0
296
0
143
3.75
271
0
272
9
273
9
  0
DICTIONARY
  5
2D
330
A
100
AcDbDictionary
280
1
281
1
  3
CREATED_BY_EZDXF
350
2E
  3
WRITTEN_BY_EZDXF
350
3B
  0
DICTIONARYVAR
  5
2E
330
2D
100
DictionaryVariables
280
0
  1
1.4.3 @ 2026-03-29T10:04:28.788573+00:00
  0
DICTIONARYVAR
  5
3B
330
2D
100
DictionaryVariables
280
0
  1
1.4.3 @ 2026-03-29T10:04:28.791903+00:00
  0
ENDSEC
  0
EOF
